<?xml version="1.0" encoding="utf-8"?>
<!-- Generator: Adobe Illustrator 24.3.0, SVG Export Plug-In . SVG Version: 6.00 Build 0)  -->
<svg version="1.1" id="Ebene_1" xmlns="http://www.w3.org/2000/svg" xmlns:xlink="http://www.w3.org/1999/xlink" x="0px" y="0px"
	 viewBox="0 0 208 96" style="enable-background:new 0 0 208 96;" xml:space="preserve">
<style type="text/css">
	.st0{fill:#006E99;}
</style>
<path id="ReTune_schwarz" d="M84.2,42.6v-6.2h-6v6.2H84.2z M84.2,51.4v-6.3h-6v6.3H84.2z M84.2,60.2v-6.3h-6v6.3H84.2z M78.3,62.7
	V69h6v-6.3H78.3z M192.1,7h15.2V12H198v4.4h7.4v5.1H198v4.6h9.7v5.1h-15.7L192.1,7L192.1,7z M150.6,7h6l6.8,11.3
	c0.9,1.6,2.1,4.2,2.1,4.2h0c0,0-0.3-2.6-0.3-4.2V7h6v24.3h-6L158.4,20c-0.9-1.6-2.1-4.2-2.1-4.2h0c0,0,0.3,2.6,0.3,4.2v11.3h-6
	L150.6,7L150.6,7z M109.6,7h6v15.3c0,2.5,1.7,3.9,4.2,3.9s4.2-1.4,4.2-3.9V7h6v15.3c0,5.5-4,9.3-10.1,9.3c-6.2,0-10.2-3.9-10.2-9.3
	C109.6,22.3,109.6,7,109.6,7z M91.6,7V12h-7.4v21.8h-6V12h-7.4V7H91.6z M38.4,7h15.2V12h-9.3v4.4h7.4v5.1h-7.4v4.6h9.8v5.1H38.4V7z
	 M14.8,22.7c-0.3-0.5-0.6-1-0.9-1.5v0c2.4-1.2,3.6-4.1,3.6-6.6c0-3.5-1.7-6-4.5-7.1C11.5,7,9.9,6.9,8.3,7h-8.5v24.3h6V23h2.8
	l4.3,8.2h6.7L14.8,22.7z M8.3,18H5.7V12h2c3,0,3.7,1.1,3.7,2.9C11.5,16.9,10.2,18,8.3,18z M10.4,81.1c-0.5,2.5-2.7,4.2-5.3,4.2
	c-3.6,0-5.2-2.6-5.2-5.6c0-3,1.8-5.6,5.4-5.6c2.2-0.2,4.2,1.2,4.9,3.3l-1.5,0.3c-0.1-0.4-0.3-0.9-0.6-1.2C7.4,75.5,6.3,75,5.2,75
	c-1.1,0-2.2,0.5-2.9,1.4c-0.6,0.9-1,2-0.9,3.1c0,2.6,1.4,4.5,3.8,4.5c1.9,0.1,3.4-1.3,3.6-3.2L10.4,81.1z M13.4,80.4v4.5H12V74.2h4
	c1.5,0,2.4,0,3.2,0.6c0.8,0.6,1.2,1.5,1.1,2.5c0.1,1.5-1,2.8-2.5,2.9c0,0,0,0,0,0l3,4.6h-1.7l-2.9-4.5L13.4,80.4L13.4,80.4z
	 M13.4,79.2h2.8c0.4,0,0.9,0,1.3-0.1c0.8-0.2,1.4-0.9,1.3-1.7c0-0.6-0.2-1.1-0.6-1.5c-0.6-0.4-1.4-0.6-2.1-0.4h-2.8L13.4,79.2
	L13.4,79.2z M32.6,81c-0.5,2.5-2.7,4.2-5.3,4.2c-3.6,0-5.2-2.6-5.2-5.6c0-3,1.8-5.6,5.4-5.6c2.2-0.2,4.2,1.2,4.9,3.3l-1.5,0.3
	C30.5,76,29,75,27.5,75c-1.1,0-2.2,0.5-2.9,1.4c-0.6,0.9-1,2-0.9,3.1c0,2.6,1.4,4.5,3.8,4.5c1.9,0.1,3.4-1.3,3.6-3.2L32.6,81z
	 M41.6,75.5V85h-1.5v-9.5H37v-1.3h7.9v1.3L41.6,75.5z M47.7,80.4v4.5h-1.4V74.2h4c1.5,0,2.4,0,3.2,0.6c0.8,0.6,1.2,1.5,1.1,2.5
	c0.1,1.5-1,2.8-2.5,2.9c0,0,0,0,0,0l3,4.6h-1.7l-2.9-4.5L47.7,80.4L47.7,80.4z M47.7,79.2h2.8c0.4,0,0.9,0,1.3-0.1
	c0.8-0.2,1.4-0.9,1.3-1.7c0-0.6-0.2-1.1-0.6-1.5c-0.6-0.4-1.4-0.6-2.1-0.4h-2.8L47.7,79.2L47.7,79.2z M58.5,80.4v4.5H57V74.2h4
	c1.5,0,2.4,0,3.2,0.6c0.8,0.6,1.2,1.5,1.1,2.5c0.1,1.5-1,2.8-2.5,2.9c0,0,0,0,0,0l3,4.6h-1.7l-2.9-4.5L58.5,80.4L58.5,80.4z
	 M58.5,79.2h2.8c0.4,0,0.9,0,1.3-0.1c0.8-0.2,1.4-0.9,1.3-1.7c0-0.6-0.2-1.1-0.6-1.5c-0.6-0.4-1.4-0.6-2.1-0.4h-2.8L58.5,79.2
	L58.5,79.2z M78.1,83.8V85h-6.7v-1.3c1.2-0.7,2.3-1.5,3.3-2.4c1.1-0.8,1.8-2.1,1.9-3.4c0-1.1-0.9-2-1.9-2c-1.1,0-2,0.9-2,1.9
	c0,0,0,0,0,0.1c0,0.4,0.1,0.8,0.2,1.2h-1.3c-0.1-0.4-0.2-0.8-0.2-1.2c0-0.9,0.3-1.7,0.9-2.3c0.7-0.6,1.5-0.9,2.4-0.9
	c1.7-0.1,3.2,1.2,3.3,3c0,0.1,0,0.2,0,0.2c0,2.1-1.8,3.6-2.7,4.4c-0.7,0.6-1.4,1.1-2.2,1.6L78.1,83.8z M81.5,82.2
	c0.1,0.9,0.9,1.7,1.8,1.7c2.2,0,2.4-3,2.4-3.6c-0.6,0.8-1.5,1.3-2.5,1.3c-1.8,0.1-3.3-1.3-3.3-3.1c0-0.1,0-0.2,0-0.3
	c-0.1-1.8,1.3-3.4,3.1-3.6c0.1,0,0.2,0,0.3,0c2.9,0,3.8,2.4,3.8,5.1c0.1,1.4-0.3,2.8-1,4.1c-0.6,0.9-1.7,1.3-2.7,1.3
	c-0.7,0-1.3-0.2-1.9-0.6c-0.6-0.5-1-1.2-1.2-2L81.5,82.2z M83.3,75.8c-1.2,0-2.1,1-2.1,2.2c0,0.1,0,0.1,0,0.2
	c-0.1,1.1,0.8,2.1,1.9,2.1c0.1,0,0.2,0,0.3,0c1.2,0.1,2.2-0.8,2.3-1.9c0,0,0-0.1,0-0.1C85.7,77,84.7,75.8,83.3,75.8
	C83.3,75.8,83.3,75.8,83.3,75.8z M89.3,74.7h5.9v1.2h-4.8l-0.1,2.7c0.6-0.6,1.5-0.9,2.3-0.8c1.9,0,3.4,1.5,3.4,3.3
	c0,0.1,0,0.2,0,0.3c0.1,1.9-1.4,3.6-3.3,3.7c-0.1,0-0.2,0-0.3,0c-1.9,0.1-3.6-1.3-3.7-3.3c0,0,0,0,0,0l1.4-0.1c0,1.2,1,2.2,2.2,2.2
	c1.3,0,2.3-1,2.3-2.2c0-0.1,0-0.2,0-0.3c0.1-1.2-0.7-2.2-1.9-2.3c-0.1,0-0.2,0-0.3,0c-0.9,0-1.7,0.5-2,1.3h-1.2L89.3,74.7z
	 M101.8,74.2h4.5c0.5,0,1,0,1.5,0.1c1.4,0.2,2.4,1.3,2.4,2.7c0,1.1-0.6,2-1.7,2.3c1.2,0.3,2,1.4,2,2.7c0,1-0.4,1.9-1.2,2.4
	c-0.8,0.5-1.6,0.5-3.2,0.6h-4.2L101.8,74.2z M103.2,75.5v3.3h2.2c1.6,0,2.4,0,2.9-0.7c0.2-0.3,0.3-0.6,0.3-1c0-1.5-1.5-1.6-2.1-1.6
	L103.2,75.5z M103.2,79.9v3.8h3.2c0.4,0,0.9,0,1.3-0.1c0.8-0.1,1.4-0.9,1.3-1.7c0-0.7-0.4-1.4-1-1.7c-0.7-0.2-1.4-0.3-2.1-0.2
	L103.2,79.9L103.2,79.9z M118.5,82.8c-0.4,1.5-1.7,2.5-3.2,2.4c-2.2,0-3.5-1.5-3.5-3.9c-0.2-1.9,1.3-3.6,3.2-3.7c0.1,0,0.2,0,0.3,0
	c1.5,0,2.9,1,3.1,2.5c0.1,0.5,0.2,1,0.1,1.5h-5.4c-0.2,1.3,0.7,2.5,2,2.7c0.1,0,0.2,0,0.3,0c1,0,1.8-0.7,1.9-1.7L118.5,82.8z
	 M117.1,80.7c0.1-1.1-0.8-2.1-1.9-2.2c-0.1,0-0.1,0-0.2,0c-1.2,0.1-2.1,1-2.1,2.2H117.1z M121.3,77.8v1.3c0.5-0.9,1.4-1.5,2.4-1.4
	V79c-0.1,0-0.3,0-0.5,0c-0.7,0-1.3,0.3-1.7,0.8c-0.3,0.6-0.4,1.2-0.3,1.8v3.3H120v-7.1H121.3z M126,74.2V85h-1.2V74.2L126,74.2z
	 M129.2,74.2v1.4H128v-1.4L129.2,74.2z M129.2,77.8V85H128v-7.2L129.2,77.8z M132.3,77.8v1c0.5-0.8,1.3-1.3,2.2-1.3
	c1.1-0.1,2,0.6,2.3,1.7c0.1,0.5,0.1,1,0.1,1.5v4.2h-1.2v-4.1c0-0.4,0-0.8-0.1-1.2c-0.2-0.6-0.8-1-1.5-1c-0.5,0-1,0.2-1.4,0.5
	c-0.4,0.4-0.6,1-0.5,1.6V85h-1.2v-7.2L132.3,77.8z M144.8,81.1h-5.4v-1.2h5.4V81.1z M158.8,74.2h1.5L157,85h-1.4l-2.8-8.9L150,85
	h-1.4l-3.3-10.7h1.5l2.5,8.9l2.7-8.9h1.4l2.8,8.9L158.8,74.2z M160.9,77.8h1.2v4.1c0,0.3,0,0.7,0,1c0.1,0.7,0.7,1.2,1.4,1.1
	c0,0,0,0,0,0c0.6,0,1.2-0.2,1.6-0.7c0.4-0.6,0.5-1.3,0.4-2v-3.6h1.2V85h-1.3v-1.1c-0.6,0.8-1.5,1.3-2.4,1.3c-0.7,0-1.3-0.2-1.8-0.7
	c-0.5-0.6-0.5-1.2-0.5-2.4L160.9,77.8L160.9,77.8z M163,75.1v1.6h-1.3v-1.6L163,75.1z M166,75.1v1.6h-1.3v-1.6L166,75.1z
	 M170.1,77.8v1.3c0.5-0.9,1.4-1.5,2.4-1.4V79c-0.1,0-0.3,0-0.5,0c-0.7,0-1.3,0.3-1.7,0.8c-0.3,0.6-0.4,1.2-0.3,1.8v3.3h-1.2v-7.1
	H170.1z M178.5,77.8v1l-4.2,5.2h4.3v1h-5.7v-1l4.1-5.1h-3.8v-1L178.5,77.8z M181.2,74.2v4.5c0.6-0.8,1.5-1.3,2.4-1.2
	c1.6,0,3.3,1,3.3,3.8c0,1.8-0.9,3.8-3.3,3.8c-1,0.1-1.9-0.4-2.4-1.1V85H180V74.2L181.2,74.2z M183.4,84.1c1.7,0,2.2-1.5,2.2-2.8
	c0-1.8-1-2.6-2.2-2.6c-1,0-2.2,0.6-2.3,2.7C181.2,83.4,182.3,84.1,183.4,84.1L183.4,84.1z M188.5,77.8h1.2v4.1c0,0.3,0,0.7,0,1
	c0.1,0.7,0.7,1.2,1.4,1.1c0,0,0,0,0,0c0.6,0,1.2-0.2,1.6-0.7c0.4-0.6,0.5-1.3,0.4-2v-3.6h1.2V85h-1.2v-1.1c-0.6,0.8-1.5,1.3-2.4,1.3
	c-0.7,0-1.3-0.2-1.8-0.7c-0.5-0.6-0.5-1.2-0.5-2.4L188.5,77.8L188.5,77.8z M197.7,77.8v1.3c0.5-0.9,1.4-1.5,2.4-1.4V79
	c-0.1,0-0.3,0-0.5,0c-0.7,0-1.3,0.3-1.7,0.8c-0.3,0.6-0.4,1.2-0.3,1.8v3.3h-1.2v-7.1H197.7z M207.8,77.8v6.8
	c0.1,0.9-0.1,1.7-0.4,2.5c-0.7,0.9-1.7,1.5-2.9,1.4c-0.8,0-1.5-0.2-2.2-0.6c-0.6-0.5-1-1.2-1.1-2.1h1.4c0,0.8,0.5,1.7,2,1.7
	c0.6,0,1.1-0.2,1.5-0.5c0.4-0.5,0.4-1,0.4-2.2v-0.8c-0.5,0.8-1.4,1.3-2.3,1.3c-1.7,0-3.3-1.3-3.3-3.8c0-2.9,1.9-3.9,3.3-3.9
	c0.9,0,1.8,0.4,2.3,1.2v-1L207.8,77.8L207.8,77.8z M202.1,81.3c0,0.7,0.2,1.3,0.5,1.9c0.8,1,2.1,1.1,3.1,0.3
	c0.2-0.1,0.3-0.3,0.4-0.4c0.3-0.6,0.5-1.2,0.5-1.9c0-2.4-1.8-2.6-2.3-2.6C203,78.7,202.1,79.7,202.1,81.3L202.1,81.3z"/>
<path id="ReTune_blau_neu" class="st0" d="M-0.2,68.9H2v-15h-2.2V68.9z M3.9,68.9h2.2v-15H3.9V68.9z M8.1,68.9h2.2v-15H8.1V68.9z
	 M16.3,68.9h2.2v-15h-2.2V68.9z M20.5,68.9h2.2v-15h-2.2V68.9z M24.6,68.9h2.2v-15h-2.2L24.6,68.9z M32.9,68.9h2.2v-15h-2.2V68.9z
	 M37,68.9h2.2v-15H37V68.9z M41.1,68.9h2.2v-15h-2.2V68.9z M49.4,68.9h2.2v-15h-2.2V68.9z M53.5,68.9h2.2v-15h-2.2V68.9z M57.6,68.9
	h2.2v-15h-2.2V68.9z M65.9,68.9h2.2v-15h-2.2V68.9z M70.1,68.9h2.2v-15h-2.2V68.9z M90.2,68.9h2.2v-15h-2.2V68.9z M94.4,68.9h2.2
	v-15h-2.2V68.9z M98.7,68.9h2.2v-15h-2.2V68.9z M103,68.9h2.2v-15H103V68.9z M107.2,68.9h2.2v-15h-2.2V68.9z M111.5,68.9h2.2v-15
	h-2.2V68.9z M115.8,68.9h2.2v-15h-2.2V68.9z M120.1,68.9h2.2v-15h-2.2V68.9z M124.3,68.9h2.2v-15h-2.2V68.9z M128.6,68.9h2.2v-15
	h-2.2L128.6,68.9z M132.9,68.9h2.2v-15h-2.2V68.9z M137.2,68.9h2.2v-15h-2.2V68.9z M141.5,68.9h2.2v-15h-2.2V68.9z M145.7,68.9h2.2
	v-15h-2.2V68.9z M150,68.9h2.2v-15H150V68.9z M154.3,68.9h2.2v-15h-2.2V68.9z M158.5,68.9h2.2v-15h-2.2V68.9z M162.8,68.9h2.2v-15
	h-2.2V68.9z M167.1,68.9h2.2v-15h-2.2V68.9z M171.3,68.9h2.2v-15h-2.2V68.9z M175.6,68.9h2.2v-15h-2.2V68.9z M179.9,68.9h2.2v-15
	h-2.2V68.9z M184.2,68.9h2.2v-15h-2.2V68.9z M188.4,68.9h2.2v-15h-2.2V68.9z M192.7,68.9h2.2v-15h-2.2V68.9z M197,68.9h2.2v-15H197
	V68.9z M201.3,68.9h2.2v-15h-2.2V68.9z M205.6,68.9h2.3v-15h-2.2L205.6,68.9z M115.8,51.5h2.2v-15h-2.2V51.5z M-0.2,51.5H2v-15h-2.2
	V51.5z M3.9,51.5h2.2v-15H3.9V51.5z M8.1,51.5h2.2v-15H8.1V51.5z M16.3,51.5h2.2v-15h-2.2V51.5z M20.5,51.5h2.2v-15h-2.2V51.5z
	 M24.6,51.5h2.2v-15h-2.2L24.6,51.5z M32.9,51.5h2.2v-15h-2.2V51.5z M37,51.5h2.2v-15H37V51.5z M41.1,51.5h2.2v-15h-2.2V51.5z
	 M49.4,51.5h2.2v-15h-2.2V51.5z M53.5,51.5h2.2v-15h-2.2V51.5z M57.6,51.5h2.2v-15h-2.2V51.5z M65.9,51.5h2.2v-15h-2.2V51.5z
	 M70.1,51.5h2.2v-15h-2.2V51.5z M90.2,51.5h2.2v-15h-2.2V51.5z M94.4,51.5h2.2v-15h-2.2V51.5z M98.7,51.5h2.2v-15h-2.2V51.5z
	 M103,51.5h2.2v-15H103V51.5z M107.2,51.5h2.2v-15h-2.2V51.5z M111.5,51.5h2.2v-15h-2.2V51.5z M120.1,51.5h2.2v-15h-2.2V51.5z
	 M124.3,51.5h2.2v-15h-2.2V51.5z M128.6,51.5h2.2v-15h-2.2L128.6,51.5z M132.9,51.5h2.2v-15h-2.2V51.5z M137.2,51.5h2.2v-15h-2.2
	V51.5z M141.5,51.5h2.2v-15h-2.2V51.5z M145.7,51.5h2.2v-15h-2.2V51.5z M150,51.5h2.2v-15H150V51.5z M154.3,51.5h2.2v-15h-2.2V51.5z
	 M158.5,51.5h2.2v-15h-2.2V51.5z M162.8,51.5h2.2v-15h-2.2V51.5z M167.1,51.5h2.2v-15h-2.2V51.5z M171.3,51.5h2.2v-15h-2.2V51.5z
	 M175.6,51.5h2.2v-15h-2.2V51.5z M179.9,51.5h2.2v-15h-2.2V51.5z M184.2,51.5h2.2v-15h-2.2V51.5z M188.4,51.5h2.2v-15h-2.2V51.5z
	 M192.7,51.5h2.2v-15h-2.2V51.5z M197,51.5h2.2v-15H197V51.5z M201.3,51.5h2.2v-15h-2.2V51.5z M205.6,51.5h2.2v-15h-2.2L205.6,51.5z
	"/>
</svg>
